#!OML:ASF H:\Dans Jumps\Project 1\Capture day 1\Session 1\subject.ASF
:FULLY-SPECIFIED
:DEGREES
446
root 0.625239 17.75 6.80479 8.43546 -1.79693 -1.24839
lowerback 0.631922 0.09469 -0.711821
upperback 3.30319 0.0963033 1.48652
thorax 3.03379 0.00571639 1.92899
lowerneck -14.042 0.156919 -1.23734
upperneck 32.9629 0.421811 0.443626
head 13.4395 0.0847691 0.455906
rclavicle 9.44227e-016 3.97569e-016
rhumerus -25.1972 -15.4291 -79.0891
rradius 24.6209
rwrist 32.4096
rhand -20.3225 -25.3211
rfingers 7.12502
rthumb 6.02849 -55.2153
lclavicle 9.44227e-016 3.97569e-016
lhumerus -19.1424 -2.2929 87.3199
lradius 27.1397
lwrist 12.4664
lhand -27.1546 -7.71951
lfingers 7.12502
lthumb -0.569429 22.2595
rfemur -15.7902 -2.32356 19.6603
rtibia 21.2881
rfoot -12.1454 0.807963
rtoes 12.7836
lfemur -15.0662 6.5806 -18.319
ltibia 18.1198
lfoot -8.3685 5.07148
ltoes -1.87163
447
root 0.62548 17.7501 6.80963 8.42949 -1.85039 -1.2323
lowerback 0.586593 0.105148 -0.73798
upperback 3.28705 0.110986 1.47505
thorax 3.04208 0.0125497 1.93225
lowerneck -14.0443 0.161157 -1.238
upperneck 32.9735 0.427456 0.445751
head 13.4445 0.087296 0.457772
rclavicle -4.12478e-015 -4.96962e-015
rhumerus -24.9661 -15.3346 -79.289
rradius 24.646
rwrist 32.3823
rhand -20.333 -25.3542
rfingers 7.12502
rthumb 6.01829 -55.2488
lclavicle -4.12478e-015 -4.96962e-015
lhumerus -19.0737 -2.17062 87.3428
lradius 26.9907
lwrist 12.4088
lhand -27.197 -7.74523
lfingers 7.12502
lthumb -0.610402 22.2336
rfemur -15.7711 -2.32848 19.6386
rtibia 21.285
rfoot -12.1629 0.856993
rtoes 12.7612
lfemur -15.0109 6.61399 -18.3381
ltibia 18.0799
lfoot -8.37664 5.08877
ltoes -1.88206
448
root 0.625818 17.7503 6.81417 8.42497 -1.89692 -1.21608
lowerback 0.542202 0.112666 -0.758945
upperback 3.26973 0.121749 1.4625
thorax 3.04877 0.0176048 1.9314
lowerneck -14.0408 0.165529 -1.23803
upperneck 32.98 0.433005 0.447832
head 13.4465 0.0898718 0.459453
rclavicle -1.2921e-015 -8.74653e-015
rhumerus -24.7424 -15.241 -79.487
rradius 24.6729
rwrist 32.3623
rhand -20.3406 -25.3789
rfingers 7.12502
rthumb 6.01098 -55.2736
lclavicle -1.2921e-015 -8.74653e-015
lhumerus -19.0169 -2.04208 87.3581
lradius 26.8253
lwrist 12.3391
lhand -27.23 -7.747
lfingers 7.12502
lthumb -0.642243 22.2318
rfemur -15.7539 -2.33929 19.617
rtibia 21.283
rfoot -12.1792 0.904734
rtoes 12.7429
lfemur -14.9612 6.65045 -18.3584
ltibia 18.0421
lfoot -8.38547 5.0953
ltoes -1.89439
449
root 0.626233 17.7504 6.81834 8.42299 -1.9338 -1.20986
lowerback 0.500544 0.117715 -0.764362
upperback 3.24876 0.129012 1.45217
thorax 3.05029 0.0213642 1.92401
lowerneck -14.03 0.169523 -1.23752
upperneck 32.9862 0.438487 0.447721
head 13.4467 0.0922021 0.46014
rclavicle -6.60959e-015 -9.14409e-015
rhumerus -24.5314 -15.1477 -79.6804
rradius 24.7035
rwrist 32.345
rhand -20.3482 -25.391
rfingers 7.12502
rthumb 6.00365 -55.286
lclavicle -6.60959e-015 -9.14409e-015
lhumerus -18.9743 -1.90624 87.3673
lradius 26.6462
lwrist 12.2485
lhand -27.2527 -7.73821
lfingers 7.12502
lthumb -0.664197 22.2405
rfemur -15.7366 -2.35265 19.607
rtibia 21.2764
rfoot -12.1899 0.947449
rtoes 12.7267
lfemur -14.9205 6.68602 -18.3679
ltibia 18.0122
lfoot -8.39828 5.09395
ltoes -1.89077
450
root 0.626674 17.7506 6.82229 8.42001 -1.96658 -1.21253
lowerback 0.460724 0.122039 -0.757619
upperback 3.2285 0.135082 1.44433
thorax 3.05156 0.0248155 1.91233
lowerneck -14.0208 0.173684 -1.23585
upperneck 32.9947 0.445353 0.443427
head 13.4484 0.0947118 0.459203
rclavicle -2.5842e-015 1.19271e-014
rhumerus -24.3323 -15.0453 -79.8719
rradius 24.7478
rwrist 32.3153
rhand -20.3538 -25.387
rfingers 7.12502
rthumb 5.99828 -55.2821
lclavicle -2.5842e-015 1.19271e-014
lhumerus -18.9429 -1.75917 87.3706
lradius 26.4558
lwrist 12.1237
lhand -27.2493 -7.67507
lfingers 7.12502
lthumb -0.660847 22.3036
rfemur -15.7152 -2.359 19.6063
rtibia 21.2645
rfoot -12.1974 0.981924
rtoes 12.7192
lfemur -14.8841 6.71898 -18.3667
ltibia 17.9906
lfoot -8.41455 5.0921
ltoes -1.87842
451
root 0.62713 17.7508 6.82597 8.41618 -1.995 -1.22429
lowerback 0.42362 0.125975 -0.739498
upperback 3.20827 0.140387 1.43997
thorax 3.05138 0.028147 1.89781
lowerneck -14.0131 0.178001 -1.23489
upperneck 33.0084 0.453945 0.435586
head 13.4526 0.0973904 0.457292
rclavicle -4.96962e-017 -5.96354e-016
rhumerus -24.145 -14.9359 -80.0591
rradius 24.8039
rwrist 32.2678
rhand -20.3577 -25.3622
rfingers 7.12502
rthumb 5.99448 -55.2574
lclavicle -4.96962e-017 -5.96354e-016
lhumerus -18.9221 -1.60572 87.3705
lradius 26.2551
lwrist 11.9682
lhand -27.2195 -7.60015
lfingers 7.12502
lthumb -0.632081 22.3787
rfemur -15.6895 -2.35747 19.6155
rtibia 21.2457
rfoot -12.1989 1.00731
rtoes 12.7165
lfemur -14.8529 6.74773 -18.3548
ltibia 17.9781
lfoot -8.43299 5.09208
ltoes -1.85562
452
root 0.627586 17.751 6.82937 8.4115 -2.01894 -1.23518
lowerback 0.388137 0.129629 -0.72017
upperback 3.18971 0.14525 1.43656
thorax 3.05203 0.0312569 1.88362
lowerneck -14.0152 0.181177 -1.23189
upperneck 33.0286 0.462473 0.421914
head 13.4618 0.0994913 0.452776
rclavicle -3.47873e-016 -1.86858e-014
rhumerus -23.9656 -14.8192 -80.2426
rradius 24.868
rwrist 32.1936
rhand -20.3565 -25.3282
rfingers 7.12502
rthumb 5.99565 -55.2234
lclavicle -3.47873e-016 -1.86858e-014
lhumerus -18.9082 -1.45486 87.3687
lradius 26.0459
lwrist 11.7854
lhand -27.1744 -7.52229
lfingers 7.12502
lthumb -0.588521 22.4566
rfemur -15.662 -2.34865 19.6235
rtibia 21.2236
rfoot -12.1974 1.02097
rtoes 12.7011
lfemur -14.8243 6.77097 -18.3432
ltibia 17.969
lfoot -8.45131 5.09333
ltoes -1.82139
453
root 0.628014 17.7511 6.83252 8.40371 -2.03943 -1.25035
lowerback 0.35622 0.133917 -0.695517
upperback 3.1735 0.150791 1.43556
thorax 3.0531 0.0347908 1.86891
lowerneck -14.0243 0.183034 -1.22821
upperneck 33.0536 0.470577 0.403781
head 13.4746 0.100882 0.446364
rclavicle 5.36719e-015 5.96354e-016
rhumerus -23.7966 -14.6953 -80.4216
rradius 24.943
rwrist 32.0905
rhand -20.3424 -25.2967
rfingers 7.12502
rthumb 6.0093 -55.1915
lclavicle 5.36719e-015 5.96354e-016
lhumerus -18.9011 -1.30957 87.3663
lradius 25.8286
lwrist 11.5777
lhand -27.1275 -7.44312
lfingers 7.12502
lthumb -0.543273 22.5359
rfemur -15.6306 -2.33063 19.6358
rtibia 21.1998
rfoot -12.1946 1.02292
rtoes 12.6831
lfemur -14.7943 6.78974 -18.3262
ltibia 17.9613
lfoot -8.46771 5.09882
ltoes -1.79139
454
root 0.62851 17.7512 6.83546 8.39537 -2.05498 -1.254
lowerback 0.325781 0.137376 -0.68049
upperback 3.15877 0.155391 1.43261
thorax 3.05487 0.0376116 1.85759
lowerneck -14.0394 0.183262 -1.22474
upperneck 33.0784 0.47737 0.383083
head 13.4888 0.101345 0.438792
rclavicle -6.4605e-016 1.98785e-015
rhumerus -23.6399 -14.563 -80.5962
rradius 25.0298
rwrist 31.9598
rhand -20.3221 -25.2666
rfingers 7.12502
rthumb 6.02884 -55.1609
lclavicle -6.4605e-016 1.98785e-015
lhumerus -18.9015 -1.16849 87.3637
lradius 25.6081
lwrist 11.3482
lhand -27.0738 -7.34414
lfingers 7.12502
lthumb -0.491365 22.635
rfemur -15.5999 -2.31405 19.6352
rtibia 21.1766
rfoot -12.1933 1.01909
rtoes 12.664
lfemur -14.7657 6.80577 -18.3225
ltibia 17.9526
lfoot -8.48326 5.1028
ltoes -1.75611
455
root 0.629044 17.7513 6.83826 8.38513 -2.0649 -1.25741
lowerback 0.297319 0.14037 -0.66401
upperback 3.14542 0.159307 1.4306
thorax 3.057 0.0401043 1.84641
lowerneck -14.0504 0.182316 -1.22502
upperneck 33.0949 0.482601 0.364998
head 13.4985 0.101076 0.432615
rclavicle 3.27995e-015 -1.59028e-014
rhumerus -23.495 -14.4339 -80.7624
rradius 25.1198
rwrist 31.823
rhand -20.3163 -25.2319
rfingers 7.12502
rthumb 6.03448 -55.126
lclavicle 3.27995e-015 -1.59028e-014
lhumerus -18.9086 -1.02607 87.3604
lradius 25.3812
lwrist 11.0924
lhand -27.0374 -7.27076
lfingers 7.12502
lthumb -0.456216 22.7085
rfemur -15.5671 -2.29866 19.6343
rtibia 21.1534
rfoot -12.1934 1.00991
rtoes 12.6468
lfemur -14.7364 6.81988 -18.3193
ltibia 17.9442
lfoot -8.49835 5.10514
ltoes -1.73079
456
root 0.629539 17.7513 6.84096 8.37369 -2.0759 -1.26075
lowerback 0.273271 0.144703 -0.650091
upperback 3.12969 0.164992 1.43139
thorax 3.05412 0.0434161 1.83957
lowerneck -14.0579 0.17728 -1.24665
upperneck 33.1102 0.481999 0.36456
head 13.5067 0.0979844 0.436247
rclavicle 7.45443e-015 7.95139e-016
rhumerus -23.373 -14.2926 -80.9189
rradius 25.2254
rwrist 31.6682
rhand -20.3175 -25.2084
rfingers 7.12502
rthumb 6.03331 -55.1025
lclavicle 7.45443e-015 7.95139e-016
lhumerus -18.9381 -0.870504 87.3595
lradius 25.1535
lwrist 10.7964
lhand -27.0107 -7.21902
lfingers 7.12502
lthumb -0.430452 22.7603
rfemur -15.534 -2.28532 19.6332
rtibia 21.1318
rfoot -12.1967 1.00222
rtoes 12.6296
lfemur -14.7064 6.83795 -18.3168
ltibia 17.9354
lfoot -8.51346 5.10549
ltoes -1.70568
